<?xml version="1.0" encoding="UTF-8" standalone="no"?><svg xmlns="http://www.w3.org/2000/svg" xmlns:xlink="http://www.w3.org/1999/xlink" contentStyleType="text/css" height="308px" preserveAspectRatio="none" style="width:445px;height:308px;background:#FFFFFF;" version="1.1" viewBox="0 0 445 308" width="445px" zoomAndPan="magnify"><defs/><g><!--MD5=[0961319b126083161c0db6306c59f4ef]
class Calibration--><g id="elem_Calibration"><rect codeLine="2" fill="#F1F1F1" height="83.2188" id="Calibration" rx="2.5" ry="2.5" style="stroke:#181818;stroke-width:0.5;" width="101" x="337" y="113"/><ellipse cx="352.45" cy="129" fill="#F1F1F1" rx="11" ry="11" style="stroke:#181818;stroke-width:1.0;"/><path d="M350.5594,133.5625 Q350.3406,133.8281 350.2,133.9063 Q350.0594,133.9844 349.8719,133.9844 Q349.4813,133.9844 349.2313,133.7188 Q348.9969,133.4531 348.9969,132.8594 L348.9969,131.7031 Q348.9969,131.0938 349.2313,130.8438 Q349.4813,130.5781 349.8719,130.5781 Q350.1688,130.5781 350.3719,130.7344 Q350.575,130.8906 350.6844,131.2656 Q350.7938,131.625 350.9031,131.7656 Q351.1531,132.0156 351.7625,132.2813 Q352.3719,132.5469 353.1063,132.5469 Q354.2469,132.5469 354.9656,132.0156 Q355.4344,131.6875 355.4344,131.2188 Q355.4344,130.9063 355.2156,130.625 Q354.9969,130.3438 354.4813,130.1719 Q354.1531,130.0469 352.9969,129.8281 Q351.6063,129.5625 350.8875,129.2031 Q350.1688,128.8438 349.7469,128.1875 Q349.3406,127.5156 349.3406,126.7344 Q349.3406,125.5156 350.3563,124.6094 Q351.3875,123.6875 353.0281,123.6875 Q353.6844,123.6875 354.2313,123.8281 Q354.7938,123.9688 355.2625,124.2656 Q355.5906,123.9531 355.9188,123.9531 Q356.2938,123.9531 356.5281,124.2188 Q356.7625,124.4688 356.7625,125.0781 L356.7625,126.3594 Q356.7625,126.9688 356.5281,127.2344 Q356.2938,127.4844 355.9188,127.4844 Q355.6063,127.4844 355.3719,127.2969 Q355.1844,127.1563 355.0906,126.7344 Q355.0125,126.3125 354.8719,126.125 Q354.6219,125.8125 354.1375,125.6094 Q353.6688,125.3906 353.0281,125.3906 Q352.1063,125.3906 351.575,125.8125 Q351.0438,126.2344 351.0438,126.7031 Q351.0438,127.0156 351.2625,127.3125 Q351.4813,127.6094 351.9031,127.7813 Q352.1844,127.8906 353.4813,128.1563 Q354.7938,128.4063 355.4969,128.7188 Q356.2,129.0156 356.6688,129.6719 Q357.1375,130.3281 357.1375,131.2344 Q357.1375,132.5 356.2469,133.25 Q355.0594,134.25 353.2313,134.25 Q352.5281,134.25 351.8563,134.0781 Q351.2,133.9063 350.5594,133.5625 Z " fill="#000000"/><text fill="#000000" font-family="sans-serif" font-size="14" lengthAdjust="spacing" textLength="68" x="366.55" y="134.7285">Calibration</text><line style="stroke:#181818;stroke-width:0.5;" x1="338" x2="437" y1="145" y2="145"/><ellipse cx="348" cy="159.3047" fill="none" rx="3" ry="3" style="stroke:#038048;stroke-width:1.0;"/><text fill="#000000" font-family="sans-serif" font-size="14" lengthAdjust="spacing" textLength="75" x="357" y="163.5332">int calOffset</text><ellipse cx="348" cy="176.9141" fill="none" rx="3" ry="3" style="stroke:#038048;stroke-width:1.0;"/><text fill="#000000" font-family="sans-serif" font-size="14" lengthAdjust="spacing" textLength="59" x="357" y="181.1426">int calRef</text><line style="stroke:#181818;stroke-width:0.5;" x1="338" x2="437" y1="188.2188" y2="188.2188"/></g><!--MD5=[9b7eb76f801c309757ef5968cb2349d9]
class Configuration--><g id="elem_Configuration"><rect codeLine="7" fill="#F1F1F1" height="294.5313" id="Configuration" rx="2.5" ry="2.5" style="stroke:#181818;stroke-width:0.5;" width="295" x="7" y="7"/><ellipse cx="107.75" cy="23" fill="#ADD1B2" rx="11" ry="11" style="stroke:#181818;stroke-width:1.0;"/><path d="M110.5156,18.875 Q110.6719,18.6563 110.8594,18.5469 Q111.0469,18.4375 111.2656,18.4375 Q111.6406,18.4375 111.875,18.7031 Q112.1094,18.9531 112.1094,19.5625 L112.1094,21.0156 Q112.1094,21.625 111.875,21.8906 Q111.6406,22.1563 111.2656,22.1563 Q110.9219,22.1563 110.7188,21.9531 Q110.5156,21.7656 110.4063,21.25 Q110.3594,20.8906 110.1719,20.7031 Q109.8438,20.3281 109.2344,20.1094 Q108.625,19.8906 108,19.8906 Q107.2344,19.8906 106.5938,20.2188 Q105.9688,20.5469 105.4688,21.2969 Q104.9844,22.0469 104.9844,23.0781 L104.9844,24.1719 Q104.9844,25.4063 105.875,26.2344 Q106.7656,27.0469 108.3594,27.0469 Q109.2969,27.0469 109.9531,26.7969 Q110.3438,26.6406 110.7656,26.2031 Q111.0313,25.9375 111.1719,25.8594 Q111.3281,25.7813 111.5313,25.7813 Q111.8594,25.7813 112.1094,26.0469 Q112.375,26.2969 112.375,26.6406 Q112.375,26.9844 112.0313,27.3906 Q111.5313,27.9688 110.7344,28.2969 Q109.6563,28.75 108.3594,28.75 Q106.8438,28.75 105.6406,28.125 Q104.6563,27.625 103.9688,26.5625 Q103.2813,25.4844 103.2813,24.2031 L103.2813,23.0469 Q103.2813,21.7188 103.8906,20.5781 Q104.5156,19.4219 105.6094,18.8125 Q106.7031,18.1875 107.9375,18.1875 Q108.6719,18.1875 109.3125,18.3594 Q109.9688,18.5156 110.5156,18.875 Z " fill="#000000"/><text fill="#000000" font-family="sans-serif" font-size="14" lengthAdjust="spacing" textLength="85" x="128.25" y="28.7285">Configuration</text><line style="stroke:#181818;stroke-width:0.5;" x1="8" x2="301" y1="39" y2="39"/><rect fill="none" height="6" style="stroke:#C82930;stroke-width:1.0;" width="6" x="15" y="50.3047"/><text fill="#000000" font-family="sans-serif" font-size="14" lengthAdjust="spacing" text-decoration="underline" textLength="142" x="27" y="57.5332">Configuration instance</text><rect fill="none" height="6" style="stroke:#C82930;stroke-width:1.0;" width="6" x="15" y="67.9141"/><text fill="#000000" font-family="sans-serif" font-size="14" lengthAdjust="spacing" textLength="156" x="27" y="75.1426">std::string configFilePath</text><rect fill="none" height="6" style="stroke:#C82930;stroke-width:1.0;" width="6" x="15" y="85.5234"/><text fill="#000000" font-family="sans-serif" font-size="14" lengthAdjust="spacing" textLength="84" x="27" y="92.752">bool isMaster</text><rect fill="none" height="6" style="stroke:#C82930;stroke-width:1.0;" width="6" x="15" y="103.1328"/><text fill="#000000" font-family="sans-serif" font-size="14" lengthAdjust="spacing" textLength="75" x="27" y="110.3613">bool pusher</text><rect fill="none" height="6" style="stroke:#C82930;stroke-width:1.0;" width="6" x="15" y="120.7422"/><text fill="#000000" font-family="sans-serif" font-size="14" lengthAdjust="spacing" textLength="90" x="27" y="127.9707">Calibration cal</text><rect fill="none" height="6" style="stroke:#C82930;stroke-width:1.0;" width="6" x="15" y="138.3516"/><text fill="#000000" font-family="sans-serif" font-size="14" lengthAdjust="spacing" textLength="269" x="27" y="145.5801">std::vector&lt;WorkpieceType&gt; desiredOrder</text><line style="stroke:#181818;stroke-width:0.5;" x1="8" x2="301" y1="152.6563" y2="152.6563"/><ellipse cx="18" cy="166.9609" fill="#84BE84" rx="3" ry="3" style="stroke:#038048;stroke-width:1.0;"/><text fill="#000000" font-family="sans-serif" font-size="14" lengthAdjust="spacing" textLength="177" x="27" y="171.1895">Configuration* getInstance()</text><ellipse cx="18" cy="184.5703" fill="#84BE84" rx="3" ry="3" style="stroke:#038048;stroke-width:1.0;"/><text fill="#000000" font-family="sans-serif" font-size="14" lengthAdjust="spacing" textLength="200" x="27" y="188.7988">setConfigFilePath(std::string fp)</text><ellipse cx="18" cy="202.1797" fill="#84BE84" rx="3" ry="3" style="stroke:#038048;stroke-width:1.0;"/><text fill="#000000" font-family="sans-serif" font-size="14" lengthAdjust="spacing" textLength="136" x="27" y="206.4082">readConfigFromFile()</text><ellipse cx="18" cy="219.7891" fill="#84BE84" rx="3" ry="3" style="stroke:#038048;stroke-width:1.0;"/><text fill="#000000" font-family="sans-serif" font-size="14" lengthAdjust="spacing" textLength="138" x="27" y="224.0176">bool systemIsMaster()</text><ellipse cx="18" cy="237.3984" fill="#84BE84" rx="3" ry="3" style="stroke:#038048;stroke-width:1.0;"/><text fill="#000000" font-family="sans-serif" font-size="14" lengthAdjust="spacing" textLength="140" x="27" y="241.627">bool pusherMounted()</text><ellipse cx="18" cy="255.0078" fill="#84BE84" rx="3" ry="3" style="stroke:#038048;stroke-width:1.0;"/><text fill="#000000" font-family="sans-serif" font-size="14" lengthAdjust="spacing" textLength="227" x="27" y="259.2363">WorkpieceType[] getDesiredOrder()</text><ellipse cx="18" cy="272.6172" fill="#84BE84" rx="3" ry="3" style="stroke:#038048;stroke-width:1.0;"/><text fill="#000000" font-family="sans-serif" font-size="14" lengthAdjust="spacing" textLength="248" x="27" y="276.8457">saveCalibration(int offset, int flatHeight)</text><ellipse cx="18" cy="290.2266" fill="#84BE84" rx="3" ry="3" style="stroke:#038048;stroke-width:1.0;"/><text fill="#000000" font-family="sans-serif" font-size="14" lengthAdjust="spacing" textLength="266" x="27" y="294.4551">float convertAdcToMillimeter(int adcValue)</text></g><!--MD5=[055b4145b7bebcd5ae66e3a7fbaed6ae]
reverse link Configuration to Calibration--><g id="link_Configuration_Calibration"><path codeLine="24" d="M315.63,154.5 C322.75,154.5 329.86,154.5 336.97,154.5 " fill="none" id="Configuration-backto-Calibration" style="stroke:#181818;stroke-width:1.0;"/><polygon fill="none" points="302.4,154.5,308.4,158.5,314.4,154.5,308.4,150.5,302.4,154.5" style="stroke:#181818;stroke-width:1.0;"/></g><!--MD5=[e730bdd09b0477d9dbfce439855a5fb9]
@startuml

struct Calibration {
  +int calOffset
  +int calRef
}

class Configuration {
  -{static} Configuration instance
  -std::string configFilePath
  -bool isMaster
  -bool pusher
  -Calibration cal
  -std::vector<WorkpieceType> desiredOrder
  +Configuration* getInstance()
  +setConfigFilePath(std::string fp)
  +readConfigFromFile()
  +bool systemIsMaster()
  +bool pusherMounted()
  +WorkpieceType[] getDesiredOrder()
  +saveCalibration(int offset, int flatHeight)
  +float convertAdcToMillimeter(int adcValue)
}

Configuration o- Calibration

@enduml

PlantUML version 1.2022.7(Mon Aug 22 19:01:30 CEST 2022)
(GPL source distribution)
Java Runtime: OpenJDK Runtime Environment
JVM: OpenJDK 64-Bit Server VM
Default Encoding: UTF-8
Language: de
Country: DE
--></g></svg>