<?xml version="1.0" encoding="UTF-8" standalone="no"?><svg xmlns="http://www.w3.org/2000/svg" xmlns:xlink="http://www.w3.org/1999/xlink" contentStyleType="text/css" height="297px" preserveAspectRatio="none" style="width:337px;height:297px;background:#FFFFFF;" version="1.1" viewBox="0 0 337 297" width="337px" zoomAndPan="magnify"><defs/><g><!--MD5=[9b7eb76f801c309757ef5968cb2349d9]
class Configuration--><g id="elem_Configuration"><rect codeLine="2" fill="#F1F1F1" height="276.9219" id="Configuration" rx="2.5" ry="2.5" style="stroke:#181818;stroke-width:0.5;" width="316" x="7" y="7"/><ellipse cx="118.25" cy="23" fill="#ADD1B2" rx="11" ry="11" style="stroke:#181818;stroke-width:1.0;"/><path d="M121.0156,18.875 Q121.1719,18.6563 121.3594,18.5469 Q121.5469,18.4375 121.7656,18.4375 Q122.1406,18.4375 122.375,18.7031 Q122.6094,18.9531 122.6094,19.5625 L122.6094,21.0156 Q122.6094,21.625 122.375,21.8906 Q122.1406,22.1563 121.7656,22.1563 Q121.4219,22.1563 121.2188,21.9531 Q121.0156,21.7656 120.9063,21.25 Q120.8594,20.8906 120.6719,20.7031 Q120.3438,20.3281 119.7344,20.1094 Q119.125,19.8906 118.5,19.8906 Q117.7344,19.8906 117.0938,20.2188 Q116.4688,20.5469 115.9688,21.2969 Q115.4844,22.0469 115.4844,23.0781 L115.4844,24.1719 Q115.4844,25.4063 116.375,26.2344 Q117.2656,27.0469 118.8594,27.0469 Q119.7969,27.0469 120.4531,26.7969 Q120.8438,26.6406 121.2656,26.2031 Q121.5313,25.9375 121.6719,25.8594 Q121.8281,25.7813 122.0313,25.7813 Q122.3594,25.7813 122.6094,26.0469 Q122.875,26.2969 122.875,26.6406 Q122.875,26.9844 122.5313,27.3906 Q122.0313,27.9688 121.2344,28.2969 Q120.1563,28.75 118.8594,28.75 Q117.3438,28.75 116.1406,28.125 Q115.1563,27.625 114.4688,26.5625 Q113.7813,25.4844 113.7813,24.2031 L113.7813,23.0469 Q113.7813,21.7188 114.3906,20.5781 Q115.0156,19.4219 116.1094,18.8125 Q117.2031,18.1875 118.4375,18.1875 Q119.1719,18.1875 119.8125,18.3594 Q120.4688,18.5156 121.0156,18.875 Z " fill="#000000"/><text fill="#000000" font-family="sans-serif" font-size="14" lengthAdjust="spacing" textLength="85" x="138.75" y="28.7285">Configuration</text><line style="stroke:#181818;stroke-width:0.5;" x1="8" x2="322" y1="39" y2="39"/><rect fill="none" height="6" style="stroke:#C82930;stroke-width:1.0;" width="6" x="15" y="50.3047"/><text fill="#000000" font-family="sans-serif" font-size="14" lengthAdjust="spacing" textLength="147" x="27" y="57.5332">Configuration* instance</text><rect fill="none" height="6" style="stroke:#C82930;stroke-width:1.0;" width="6" x="15" y="67.9141"/><text fill="#000000" font-family="sans-serif" font-size="14" lengthAdjust="spacing" textLength="84" x="27" y="75.1426">bool isMaster</text><rect fill="none" height="6" style="stroke:#C82930;stroke-width:1.0;" width="6" x="15" y="85.5234"/><text fill="#000000" font-family="sans-serif" font-size="14" lengthAdjust="spacing" textLength="75" x="27" y="92.752">bool pusher</text><rect fill="none" height="6" style="stroke:#C82930;stroke-width:1.0;" width="6" x="15" y="103.1328"/><text fill="#000000" font-family="sans-serif" font-size="14" lengthAdjust="spacing" textLength="290" x="27" y="110.3613">WorkpieceType[3] configuredWorkpieceOrder</text><rect fill="none" height="6" style="stroke:#C82930;stroke-width:1.0;" width="6" x="15" y="120.7422"/><text fill="#000000" font-family="sans-serif" font-size="14" lengthAdjust="spacing" textLength="75" x="27" y="127.9707">int calOffset</text><rect fill="none" height="6" style="stroke:#C82930;stroke-width:1.0;" width="6" x="15" y="138.3516"/><text fill="#000000" font-family="sans-serif" font-size="14" lengthAdjust="spacing" textLength="141" x="27" y="145.5801">int adcIncPerMillimeter</text><line style="stroke:#181818;stroke-width:0.5;" x1="8" x2="322" y1="152.6563" y2="152.6563"/><ellipse cx="18" cy="166.9609" fill="#84BE84" rx="3" ry="3" style="stroke:#038048;stroke-width:1.0;"/><text fill="#000000" font-family="sans-serif" font-size="14" lengthAdjust="spacing" textLength="172" x="27" y="171.1895">Configuration getInstance()</text><ellipse cx="18" cy="184.5703" fill="#84BE84" rx="3" ry="3" style="stroke:#038048;stroke-width:1.0;"/><text fill="#000000" font-family="sans-serif" font-size="14" lengthAdjust="spacing" textLength="236" x="27" y="188.7988">readConfig(std::string configFilePath)</text><ellipse cx="18" cy="202.1797" fill="#84BE84" rx="3" ry="3" style="stroke:#038048;stroke-width:1.0;"/><text fill="#000000" font-family="sans-serif" font-size="14" lengthAdjust="spacing" textLength="138" x="27" y="206.4082">bool systemIsMaster()</text><ellipse cx="18" cy="219.7891" fill="#84BE84" rx="3" ry="3" style="stroke:#038048;stroke-width:1.0;"/><text fill="#000000" font-family="sans-serif" font-size="14" lengthAdjust="spacing" textLength="117" x="27" y="224.0176">bool pusherUsed()</text><ellipse cx="18" cy="237.3984" fill="#84BE84" rx="3" ry="3" style="stroke:#038048;stroke-width:1.0;"/><text fill="#000000" font-family="sans-serif" font-size="14" lengthAdjust="spacing" textLength="227" x="27" y="241.627">WorkpieceType[] getDesiredOrder()</text><ellipse cx="18" cy="255.0078" fill="#84BE84" rx="3" ry="3" style="stroke:#038048;stroke-width:1.0;"/><text fill="#000000" font-family="sans-serif" font-size="14" lengthAdjust="spacing" textLength="248" x="27" y="259.2363">saveCalibration(int offset, int flatHeight)</text><ellipse cx="18" cy="272.6172" fill="#84BE84" rx="3" ry="3" style="stroke:#038048;stroke-width:1.0;"/><text fill="#000000" font-family="sans-serif" font-size="14" lengthAdjust="spacing" textLength="266" x="27" y="276.8457">float convertAdcToMillimeter(int adcValue)</text></g><!--MD5=[2817eb24005362e210be01674480b9ab]
@startuml

class Configuration {
  -Configuration* instance
  -bool isMaster
  -bool pusher
  -WorkpieceType[3] configuredWorkpieceOrder
  -int calOffset
  -int adcIncPerMillimeter
  +Configuration getInstance()
  +readConfig(std::string configFilePath)
  +bool systemIsMaster()
  +bool pusherUsed()
  +WorkpieceType[] getDesiredOrder()
  +saveCalibration(int offset, int flatHeight)
  +float convertAdcToMillimeter(int adcValue)
}

@enduml

PlantUML version 1.2022.7(Mon Aug 22 19:01:30 CEST 2022)
(GPL source distribution)
Java Runtime: OpenJDK Runtime Environment
JVM: OpenJDK 64-Bit Server VM
Default Encoding: UTF-8
Language: de
Country: DE
--></g></svg>