<?xml version="1.0" encoding="UTF-8" standalone="no"?><svg xmlns="http://www.w3.org/2000/svg" xmlns:xlink="http://www.w3.org/1999/xlink" contentStyleType="text/css" height="1087px" preserveAspectRatio="none" style="width:819px;height:1087px;background:#FFFFFF;" version="1.1" viewBox="0 0 819 1087" width="819px" zoomAndPan="magnify"><defs/><g><rect fill="#FFFFFF" height="36.3516" style="stroke:#181818;stroke-width:1.0;" width="10" x="37" y="178.625"/><rect fill="#FFFFFF" height="36.3516" style="stroke:#181818;stroke-width:1.0;" width="10" x="37" y="599.1953"/><rect fill="#FFFFFF" height="36.3516" style="stroke:#181818;stroke-width:1.0;" width="10" x="37" y="868.0078"/><rect fill="#FFFFFF" height="36.3516" style="stroke:#181818;stroke-width:1.0;" width="10" x="691" y="282.6797"/><rect fill="#FFFFFF" height="36.3516" style="stroke:#181818;stroke-width:1.0;" width="10" x="691" y="703.25"/><rect fill="#FFFFFF" height="36.3516" style="stroke:#181818;stroke-width:1.0;" width="10" x="691" y="972.0625"/><line style="stroke:#181818;stroke-width:0.5;stroke-dasharray:5.0,5.0;" x1="42" x2="42" y1="55.2188" y2="1033.4141"/><line style="stroke:#181818;stroke-width:0.5;stroke-dasharray:5.0,5.0;" x1="242" x2="242" y1="55.2188" y2="1033.4141"/><line style="stroke:#181818;stroke-width:0.5;stroke-dasharray:5.0,5.0;" x1="442" x2="442" y1="55.2188" y2="1033.4141"/><line style="stroke:#181818;stroke-width:0.5;stroke-dasharray:5.0,5.0;" x1="542" x2="542" y1="55.2188" y2="1033.4141"/><line style="stroke:#181818;stroke-width:0.5;stroke-dasharray:5.0,5.0;" x1="696" x2="696" y1="55.2188" y2="1033.4141"/><rect fill="#E2E2F0" height="49.2188" rx="2.5" ry="2.5" style="stroke:#181818;stroke-width:0.5;" width="74" x="5" y="5"/><text fill="#000000" font-family="sans-serif" font-size="14" font-style="italic" lengthAdjust="spacing" textLength="60" x="12" y="26.5332">«Master»</text><text fill="#000000" font-family="sans-serif" font-size="14" lengthAdjust="spacing" textLength="26" x="29" y="44.1426">HAL</text><rect fill="#E2E2F0" height="49.2188" rx="2.5" ry="2.5" style="stroke:#181818;stroke-width:0.5;" width="74" x="5" y="1032.4141"/><text fill="#000000" font-family="sans-serif" font-size="14" font-style="italic" lengthAdjust="spacing" textLength="60" x="12" y="1053.9473">«Master»</text><text fill="#000000" font-family="sans-serif" font-size="14" lengthAdjust="spacing" textLength="26" x="29" y="1071.5566">HAL</text><rect fill="#E2E2F0" height="49.2188" rx="2.5" ry="2.5" style="stroke:#181818;stroke-width:0.5;" width="106" x="189" y="5"/><text fill="#000000" font-family="sans-serif" font-size="14" font-style="italic" lengthAdjust="spacing" textLength="60" x="212" y="26.5332">«Master»</text><text fill="#000000" font-family="sans-serif" font-size="14" lengthAdjust="spacing" textLength="92" x="196" y="44.1426">EventManager</text><rect fill="#E2E2F0" height="49.2188" rx="2.5" ry="2.5" style="stroke:#181818;stroke-width:0.5;" width="106" x="189" y="1032.4141"/><text fill="#000000" font-family="sans-serif" font-size="14" font-style="italic" lengthAdjust="spacing" textLength="60" x="212" y="1053.9473">«Master»</text><text fill="#000000" font-family="sans-serif" font-size="14" lengthAdjust="spacing" textLength="92" x="196" y="1071.5566">EventManager</text><rect fill="#E2E2F0" height="49.2188" rx="2.5" ry="2.5" style="stroke:#181818;stroke-width:0.5;" width="74" x="405" y="5"/><text fill="#000000" font-family="sans-serif" font-size="14" font-style="italic" lengthAdjust="spacing" textLength="60" x="412" y="26.5332">«Master»</text><text fill="#000000" font-family="sans-serif" font-size="14" lengthAdjust="spacing" textLength="34" x="425" y="44.1426">Logic</text><rect fill="#E2E2F0" height="49.2188" rx="2.5" ry="2.5" style="stroke:#181818;stroke-width:0.5;" width="74" x="405" y="1032.4141"/><text fill="#000000" font-family="sans-serif" font-size="14" font-style="italic" lengthAdjust="spacing" textLength="60" x="412" y="1053.9473">«Master»</text><text fill="#000000" font-family="sans-serif" font-size="14" lengthAdjust="spacing" textLength="34" x="425" y="1071.5566">Logic</text><rect fill="#E2E2F0" height="49.2188" rx="2.5" ry="2.5" style="stroke:#181818;stroke-width:0.5;" width="106" x="489" y="5"/><text fill="#000000" font-family="sans-serif" font-size="14" font-style="italic" lengthAdjust="spacing" textLength="50" x="517" y="26.5332">«Slave»</text><text fill="#000000" font-family="sans-serif" font-size="14" lengthAdjust="spacing" textLength="92" x="496" y="44.1426">EventManager</text><rect fill="#E2E2F0" height="49.2188" rx="2.5" ry="2.5" style="stroke:#181818;stroke-width:0.5;" width="106" x="489" y="1032.4141"/><text fill="#000000" font-family="sans-serif" font-size="14" font-style="italic" lengthAdjust="spacing" textLength="50" x="517" y="1053.9473">«Slave»</text><text fill="#000000" font-family="sans-serif" font-size="14" lengthAdjust="spacing" textLength="92" x="496" y="1071.5566">EventManager</text><rect fill="#E2E2F0" height="49.2188" rx="2.5" ry="2.5" style="stroke:#181818;stroke-width:0.5;" width="64" x="664" y="5"/><text fill="#000000" font-family="sans-serif" font-size="14" font-style="italic" lengthAdjust="spacing" textLength="50" x="671" y="26.5332">«Slave»</text><text fill="#000000" font-family="sans-serif" font-size="14" lengthAdjust="spacing" textLength="26" x="683" y="44.1426">HAL</text><rect fill="#E2E2F0" height="49.2188" rx="2.5" ry="2.5" style="stroke:#181818;stroke-width:0.5;" width="64" x="664" y="1032.4141"/><text fill="#000000" font-family="sans-serif" font-size="14" font-style="italic" lengthAdjust="spacing" textLength="50" x="671" y="1053.9473">«Slave»</text><text fill="#000000" font-family="sans-serif" font-size="14" lengthAdjust="spacing" textLength="26" x="683" y="1071.5566">HAL</text><rect fill="#FFFFFF" height="36.3516" style="stroke:#181818;stroke-width:1.0;" width="10" x="37" y="178.625"/><rect fill="#FFFFFF" height="36.3516" style="stroke:#181818;stroke-width:1.0;" width="10" x="37" y="599.1953"/><rect fill="#FFFFFF" height="36.3516" style="stroke:#181818;stroke-width:1.0;" width="10" x="37" y="868.0078"/><rect fill="#FFFFFF" height="36.3516" style="stroke:#181818;stroke-width:1.0;" width="10" x="691" y="282.6797"/><rect fill="#FFFFFF" height="36.3516" style="stroke:#181818;stroke-width:1.0;" width="10" x="691" y="703.25"/><rect fill="#FFFFFF" height="36.3516" style="stroke:#181818;stroke-width:1.0;" width="10" x="691" y="972.0625"/><polygon fill="#181818" points="230,83.5703,240,87.5703,230,91.5703,234,87.5703" style="stroke:#181818;stroke-width:1.0;"/><line style="stroke:#181818;stroke-width:1.0;" x1="42" x2="236" y1="87.5703" y2="87.5703"/><text fill="#000000" font-family="sans-serif" font-size="13" lengthAdjust="spacing" textLength="128" x="49" y="82.7139">ESTOP_1_PRESSED</text><polygon fill="#181818" points="430,113.9219,440,117.9219,430,121.9219,434,117.9219" style="stroke:#181818;stroke-width:1.0;"/><line style="stroke:#181818;stroke-width:1.0;" x1="242" x2="436" y1="117.9219" y2="117.9219"/><text fill="#000000" font-family="sans-serif" font-size="13" lengthAdjust="spacing" textLength="128" x="249" y="113.0654">ESTOP_1_PRESSED</text><polygon fill="#181818" points="253,144.2734,243,148.2734,253,152.2734,249,148.2734" style="stroke:#181818;stroke-width:1.0;"/><line style="stroke:#181818;stroke-width:1.0;" x1="247" x2="441" y1="148.2734" y2="148.2734"/><text fill="#000000" font-family="sans-serif" font-size="13" lengthAdjust="spacing" textLength="130" x="259" y="143.417">MODE_EMERGENCY</text><polygon fill="#181818" points="58,174.625,48,178.625,58,182.625,54,178.625" style="stroke:#181818;stroke-width:1.0;"/><line style="stroke:#181818;stroke-width:1.0;" x1="52" x2="241" y1="178.625" y2="178.625"/><text fill="#000000" font-family="sans-serif" font-size="13" lengthAdjust="spacing" textLength="130" x="64" y="173.7686">MODE_EMERGENCY</text><line style="stroke:#181818;stroke-width:1.0;" x1="47" x2="89" y1="213.9766" y2="213.9766"/><line style="stroke:#181818;stroke-width:1.0;" x1="89" x2="89" y1="213.9766" y2="226.9766"/><line style="stroke:#181818;stroke-width:1.0;" x1="42" x2="89" y1="226.9766" y2="226.9766"/><polygon fill="#181818" points="52,222.9766,42,226.9766,52,230.9766,48,226.9766" style="stroke:#181818;stroke-width:1.0;"/><text fill="#000000" font-family="sans-serif" font-size="13" lengthAdjust="spacing" textLength="104" x="54" y="209.1201">emergencyMode()</text><polygon fill="#181818" points="530,248.3281,540,252.3281,530,256.3281,534,252.3281" style="stroke:#181818;stroke-width:1.0;"/><line style="stroke:#181818;stroke-width:1.0;" x1="242" x2="536" y1="252.3281" y2="252.3281"/><text fill="#000000" font-family="sans-serif" font-size="13" lengthAdjust="spacing" textLength="130" x="249" y="247.4717">MODE_EMERGENCY</text><polygon fill="#181818" points="679,278.6797,689,282.6797,679,286.6797,683,282.6797" style="stroke:#181818;stroke-width:1.0;"/><line style="stroke:#181818;stroke-width:1.0;" x1="542" x2="685" y1="282.6797" y2="282.6797"/><text fill="#000000" font-family="sans-serif" font-size="13" lengthAdjust="spacing" textLength="130" x="549" y="277.8232">MODE_EMERGENCY</text><line style="stroke:#181818;stroke-width:1.0;" x1="701" x2="743" y1="318.0313" y2="318.0313"/><line style="stroke:#181818;stroke-width:1.0;" x1="743" x2="743" y1="318.0313" y2="331.0313"/><line style="stroke:#181818;stroke-width:1.0;" x1="696" x2="743" y1="331.0313" y2="331.0313"/><polygon fill="#181818" points="706,327.0313,696,331.0313,706,335.0313,702,331.0313" style="stroke:#181818;stroke-width:1.0;"/><text fill="#000000" font-family="sans-serif" font-size="13" lengthAdjust="spacing" textLength="104" x="708" y="313.1748">emergencyMode()</text><polygon fill="#181818" points="230,352.3828,240,356.3828,230,360.3828,234,356.3828" style="stroke:#181818;stroke-width:1.0;"/><line style="stroke:#181818;stroke-width:1.0;" x1="42" x2="236" y1="356.3828" y2="356.3828"/><text fill="#000000" font-family="sans-serif" font-size="13" lengthAdjust="spacing" textLength="135" x="49" y="351.5264">ESTOP_1_RELEASED</text><polygon fill="#181818" points="430,382.7344,440,386.7344,430,390.7344,434,386.7344" style="stroke:#181818;stroke-width:1.0;"/><line style="stroke:#181818;stroke-width:1.0;" x1="242" x2="436" y1="386.7344" y2="386.7344"/><text fill="#000000" font-family="sans-serif" font-size="13" lengthAdjust="spacing" textLength="135" x="249" y="381.8779">ESTOP_1_RELEASED</text><polygon fill="#181818" points="230,413.0859,240,417.0859,230,421.0859,234,417.0859" style="stroke:#181818;stroke-width:1.0;"/><line style="stroke:#181818;stroke-width:1.0;" x1="42" x2="236" y1="417.0859" y2="417.0859"/><text fill="#000000" font-family="sans-serif" font-size="13" lengthAdjust="spacing" textLength="127" x="49" y="412.2295">RESET_1_PRESSED</text><polygon fill="#181818" points="430,443.4375,440,447.4375,430,451.4375,434,447.4375" style="stroke:#181818;stroke-width:1.0;"/><line style="stroke:#181818;stroke-width:1.0;" x1="242" x2="436" y1="447.4375" y2="447.4375"/><text fill="#000000" font-family="sans-serif" font-size="13" lengthAdjust="spacing" textLength="127" x="249" y="442.5811">RESET_1_PRESSED</text><polygon fill="#181818" points="553,473.7891,543,477.7891,553,481.7891,549,477.7891" style="stroke:#181818;stroke-width:1.0;"/><line style="stroke:#181818;stroke-width:1.0;" x1="547" x2="695" y1="477.7891" y2="477.7891"/><text fill="#000000" font-family="sans-serif" font-size="13" lengthAdjust="spacing" textLength="127" x="559" y="472.9326">RESET_2_PRESSED</text><polygon fill="#181818" points="253,504.1406,243,508.1406,253,512.1406,249,508.1406" style="stroke:#181818;stroke-width:1.0;"/><line style="stroke:#181818;stroke-width:1.0;" x1="247" x2="541" y1="508.1406" y2="508.1406"/><text fill="#000000" font-family="sans-serif" font-size="13" lengthAdjust="spacing" textLength="127" x="259" y="503.2842">RESET_2_PRESSED</text><polygon fill="#181818" points="430,534.4922,440,538.4922,430,542.4922,434,538.4922" style="stroke:#181818;stroke-width:1.0;"/><line style="stroke:#181818;stroke-width:1.0;" x1="242" x2="436" y1="538.4922" y2="538.4922"/><text fill="#000000" font-family="sans-serif" font-size="13" lengthAdjust="spacing" textLength="127" x="249" y="533.6357">RESET_2_PRESSED</text><polygon fill="#181818" points="253,564.8438,243,568.8438,253,572.8438,249,568.8438" style="stroke:#181818;stroke-width:1.0;"/><line style="stroke:#181818;stroke-width:1.0;" x1="247" x2="441" y1="568.8438" y2="568.8438"/><text fill="#000000" font-family="sans-serif" font-size="13" lengthAdjust="spacing" textLength="107" x="259" y="563.9873">MODE_STANDBY</text><polygon fill="#181818" points="58,595.1953,48,599.1953,58,603.1953,54,599.1953" style="stroke:#181818;stroke-width:1.0;"/><line style="stroke:#181818;stroke-width:1.0;" x1="52" x2="241" y1="599.1953" y2="599.1953"/><text fill="#000000" font-family="sans-serif" font-size="13" lengthAdjust="spacing" textLength="107" x="64" y="594.3389">MODE_STANDBY</text><line style="stroke:#181818;stroke-width:1.0;" x1="47" x2="89" y1="634.5469" y2="634.5469"/><line style="stroke:#181818;stroke-width:1.0;" x1="89" x2="89" y1="634.5469" y2="647.5469"/><line style="stroke:#181818;stroke-width:1.0;" x1="42" x2="89" y1="647.5469" y2="647.5469"/><polygon fill="#181818" points="52,643.5469,42,647.5469,52,651.5469,48,647.5469" style="stroke:#181818;stroke-width:1.0;"/><text fill="#000000" font-family="sans-serif" font-size="13" lengthAdjust="spacing" textLength="86" x="54" y="629.6904">standbyMode()</text><polygon fill="#181818" points="530,668.8984,540,672.8984,530,676.8984,534,672.8984" style="stroke:#181818;stroke-width:1.0;"/><line style="stroke:#181818;stroke-width:1.0;" x1="242" x2="536" y1="672.8984" y2="672.8984"/><text fill="#000000" font-family="sans-serif" font-size="13" lengthAdjust="spacing" textLength="107" x="249" y="668.042">MODE_STANDBY</text><polygon fill="#181818" points="679,699.25,689,703.25,679,707.25,683,703.25" style="stroke:#181818;stroke-width:1.0;"/><line style="stroke:#181818;stroke-width:1.0;" x1="542" x2="685" y1="703.25" y2="703.25"/><text fill="#000000" font-family="sans-serif" font-size="13" lengthAdjust="spacing" textLength="107" x="549" y="698.3936">MODE_STANDBY</text><line style="stroke:#181818;stroke-width:1.0;" x1="701" x2="743" y1="738.6016" y2="738.6016"/><line style="stroke:#181818;stroke-width:1.0;" x1="743" x2="743" y1="738.6016" y2="751.6016"/><line style="stroke:#181818;stroke-width:1.0;" x1="696" x2="743" y1="751.6016" y2="751.6016"/><polygon fill="#181818" points="706,747.6016,696,751.6016,706,755.6016,702,751.6016" style="stroke:#181818;stroke-width:1.0;"/><text fill="#000000" font-family="sans-serif" font-size="13" lengthAdjust="spacing" textLength="86" x="708" y="733.7451">standbyMode()</text><polygon fill="#181818" points="230,772.9531,240,776.9531,230,780.9531,234,776.9531" style="stroke:#181818;stroke-width:1.0;"/><line style="stroke:#181818;stroke-width:1.0;" x1="42" x2="236" y1="776.9531" y2="776.9531"/><text fill="#000000" font-family="sans-serif" font-size="13" lengthAdjust="spacing" textLength="176" x="49" y="772.0967">START_1_PRESSED_SHORT</text><polygon fill="#181818" points="430,803.3047,440,807.3047,430,811.3047,434,807.3047" style="stroke:#181818;stroke-width:1.0;"/><line style="stroke:#181818;stroke-width:1.0;" x1="242" x2="436" y1="807.3047" y2="807.3047"/><text fill="#000000" font-family="sans-serif" font-size="13" lengthAdjust="spacing" textLength="176" x="249" y="802.4482">START_1_PRESSED_SHORT</text><polygon fill="#181818" points="253,833.6563,243,837.6563,253,841.6563,249,837.6563" style="stroke:#181818;stroke-width:1.0;"/><line style="stroke:#181818;stroke-width:1.0;" x1="247" x2="441" y1="837.6563" y2="837.6563"/><text fill="#000000" font-family="sans-serif" font-size="13" lengthAdjust="spacing" textLength="104" x="259" y="832.7998">MODE_RUNNING</text><polygon fill="#181818" points="58,864.0078,48,868.0078,58,872.0078,54,868.0078" style="stroke:#181818;stroke-width:1.0;"/><line style="stroke:#181818;stroke-width:1.0;" x1="52" x2="241" y1="868.0078" y2="868.0078"/><text fill="#000000" font-family="sans-serif" font-size="13" lengthAdjust="spacing" textLength="104" x="64" y="863.1514">MODE_RUNNING</text><line style="stroke:#181818;stroke-width:1.0;" x1="47" x2="89" y1="903.3594" y2="903.3594"/><line style="stroke:#181818;stroke-width:1.0;" x1="89" x2="89" y1="903.3594" y2="916.3594"/><line style="stroke:#181818;stroke-width:1.0;" x1="42" x2="89" y1="916.3594" y2="916.3594"/><polygon fill="#181818" points="52,912.3594,42,916.3594,52,920.3594,48,916.3594" style="stroke:#181818;stroke-width:1.0;"/><text fill="#000000" font-family="sans-serif" font-size="13" lengthAdjust="spacing" textLength="82" x="54" y="898.5029">runningMode()</text><polygon fill="#181818" points="530,937.7109,540,941.7109,530,945.7109,534,941.7109" style="stroke:#181818;stroke-width:1.0;"/><line style="stroke:#181818;stroke-width:1.0;" x1="242" x2="536" y1="941.7109" y2="941.7109"/><text fill="#000000" font-family="sans-serif" font-size="13" lengthAdjust="spacing" textLength="104" x="249" y="936.8545">MODE_RUNNING</text><polygon fill="#181818" points="679,968.0625,689,972.0625,679,976.0625,683,972.0625" style="stroke:#181818;stroke-width:1.0;"/><line style="stroke:#181818;stroke-width:1.0;" x1="542" x2="685" y1="972.0625" y2="972.0625"/><text fill="#000000" font-family="sans-serif" font-size="13" lengthAdjust="spacing" textLength="104" x="549" y="967.2061">MODE_RUNNING</text><line style="stroke:#181818;stroke-width:1.0;" x1="701" x2="743" y1="1007.4141" y2="1007.4141"/><line style="stroke:#181818;stroke-width:1.0;" x1="743" x2="743" y1="1007.4141" y2="1020.4141"/><line style="stroke:#181818;stroke-width:1.0;" x1="696" x2="743" y1="1020.4141" y2="1020.4141"/><polygon fill="#181818" points="706,1016.4141,696,1020.4141,706,1024.4141,702,1020.4141" style="stroke:#181818;stroke-width:1.0;"/><text fill="#000000" font-family="sans-serif" font-size="13" lengthAdjust="spacing" textLength="82" x="708" y="1002.5576">runningMode()</text><!--MD5=[e4334908dc47d22ab2fcbde8a069a6f2]
@startuml

participant "HAL" as HAL_M << Master >>
participant "EventManager" as EventManager_M << Master >>
participant "Logic" as Logic << Master >>
participant "EventManager" as EventManager_S << Slave >>
participant "HAL" as HAL_S << Slave >>

HAL_M -> EventManager_M : ESTOP_1_PRESSED
EventManager_M -> Logic : ESTOP_1_PRESSED
Logic -> EventManager_M : MODE_EMERGENCY
EventManager_M -> HAL_M : MODE_EMERGENCY
activate HAL_M
HAL_M -> HAL_M : emergencyMode()
deactivate HAL_M
EventManager_M -> EventManager_S : MODE_EMERGENCY
EventManager_S -> HAL_S : MODE_EMERGENCY
activate HAL_S
HAL_S -> HAL_S : emergencyMode()
deactivate HAL_S
HAL_M -> EventManager_M : ESTOP_1_RELEASED
EventManager_M -> Logic : ESTOP_1_RELEASED
HAL_M -> EventManager_M : RESET_1_PRESSED
EventManager_M -> Logic : RESET_1_PRESSED
HAL_S -> EventManager_S : RESET_2_PRESSED
EventManager_S -> EventManager_M : RESET_2_PRESSED
EventManager_M -> Logic : RESET_2_PRESSED
Logic -> EventManager_M : MODE_STANDBY
EventManager_M -> HAL_M : MODE_STANDBY
activate HAL_M
HAL_M -> HAL_M : standbyMode()
deactivate HAL_M
EventManager_M -> EventManager_S : MODE_STANDBY
EventManager_S -> HAL_S : MODE_STANDBY
activate HAL_S
HAL_S -> HAL_S : standbyMode()
deactivate HAL_S
HAL_M -> EventManager_M : START_1_PRESSED_SHORT
EventManager_M -> Logic : START_1_PRESSED_SHORT
Logic -> EventManager_M : MODE_RUNNING
EventManager_M -> HAL_M : MODE_RUNNING
activate HAL_M
HAL_M -> HAL_M : runningMode()
deactivate HAL_M

EventManager_M -> EventManager_S : MODE_RUNNING
EventManager_S -> HAL_S : MODE_RUNNING
activate HAL_S
HAL_S -> HAL_S : runningMode()
deactivate HAL_S

@enduml

PlantUML version 1.2022.7(Mon Aug 22 19:01:30 CEST 2022)
(GPL source distribution)
Java Runtime: OpenJDK Runtime Environment
JVM: OpenJDK 64-Bit Server VM
Default Encoding: UTF-8
Language: de
Country: DE
--></g></svg>